<mxfile host="app.diagrams.net" agent="Mozilla/5.0 (Windows NT 10.0; Win64; x64) AppleWebKit/537.36 (KHTML, like Gecko) Chrome/132.0.0.0 Safari/537.36" modified="2025-02-11T14:31:28.086Z" version="24.6.4" etag="G6kYDzYGRsc7zF0vaWV4" type="device">
  <diagram name="Page-1" id="gNjcBMNBrlaOapCLY0eA">
    <mxGraphModel dx="3640" dy="2332" grid="1" gridSize="10" guides="1" tooltips="1" connect="1" arrows="1" fold="1" page="1" pageScale="1" pageWidth="850" pageHeight="1100" math="0" shadow="0">
      <root>
        <mxCell id="0" />
        <mxCell id="1" parent="0" />
        <mxCell id="du4Ww-NUh8m7LlfueqSG-55" style="edgeStyle=orthogonalEdgeStyle;rounded=0;orthogonalLoop=1;jettySize=auto;html=1;entryX=0;entryY=0.5;entryDx=0;entryDy=0;exitX=0.802;exitY=0.008;exitDx=0;exitDy=0;exitPerimeter=0;" parent="1" source="du4Ww-NUh8m7LlfueqSG-47" target="du4Ww-NUh8m7LlfueqSG-15" edge="1">
          <mxGeometry relative="1" as="geometry">
            <mxPoint x="500" y="240" as="sourcePoint" />
          </mxGeometry>
        </mxCell>
        <mxCell id="du4Ww-NUh8m7LlfueqSG-1" value="Order" style="swimlane;fontStyle=1;align=center;verticalAlign=top;childLayout=stackLayout;horizontal=1;startSize=26;horizontalStack=0;resizeParent=1;resizeParentMax=0;resizeLast=0;collapsible=1;marginBottom=0;whiteSpace=wrap;html=1;" parent="1" vertex="1">
          <mxGeometry x="105" y="40" width="320" height="170" as="geometry" />
        </mxCell>
        <mxCell id="du4Ww-NUh8m7LlfueqSG-2" value="- orderNr : int&lt;div&gt;- isStudentOrder : boolean&lt;/div&gt;" style="text;strokeColor=none;fillColor=none;align=left;verticalAlign=top;spacingLeft=4;spacingRight=4;overflow=hidden;rotatable=0;points=[[0,0.5],[1,0.5]];portConstraint=eastwest;whiteSpace=wrap;html=1;" parent="du4Ww-NUh8m7LlfueqSG-1" vertex="1">
          <mxGeometry y="26" width="320" height="34" as="geometry" />
        </mxCell>
        <mxCell id="du4Ww-NUh8m7LlfueqSG-3" value="" style="line;strokeWidth=1;fillColor=none;align=left;verticalAlign=middle;spacingTop=-1;spacingLeft=3;spacingRight=3;rotatable=0;labelPosition=right;points=[];portConstraint=eastwest;strokeColor=inherit;" parent="du4Ww-NUh8m7LlfueqSG-1" vertex="1">
          <mxGeometry y="60" width="320" height="8" as="geometry" />
        </mxCell>
        <mxCell id="du4Ww-NUh8m7LlfueqSG-4" value="+Order(orderNr : int, isStudentOrder : boolean)&lt;div&gt;+getOrderNr() : int&lt;/div&gt;&lt;div&gt;+ addSeatReservation (ticket : MovieTicket)&lt;/div&gt;&lt;div&gt;+calculatePrice() : double&lt;/div&gt;&lt;div&gt;+ export (exportManager : IExportManagerexportFormat: TicketExportFormat) : void&lt;/div&gt;" style="text;strokeColor=none;fillColor=none;align=left;verticalAlign=top;spacingLeft=4;spacingRight=4;overflow=hidden;rotatable=0;points=[[0,0.5],[1,0.5]];portConstraint=eastwest;whiteSpace=wrap;html=1;" parent="du4Ww-NUh8m7LlfueqSG-1" vertex="1">
          <mxGeometry y="68" width="320" height="102" as="geometry" />
        </mxCell>
        <mxCell id="du4Ww-NUh8m7LlfueqSG-6" value="&amp;lt;&amp;lt;enumeration&amp;gt;&amp;gt;&lt;div&gt;TicketExportFormat&lt;/div&gt;" style="swimlane;fontStyle=1;align=center;verticalAlign=top;childLayout=stackLayout;horizontal=1;startSize=40;horizontalStack=0;resizeParent=1;resizeParentMax=0;resizeLast=0;collapsible=1;marginBottom=0;whiteSpace=wrap;html=1;direction=east;" parent="1" vertex="1">
          <mxGeometry x="-170" y="60" width="160" height="114" as="geometry" />
        </mxCell>
        <mxCell id="du4Ww-NUh8m7LlfueqSG-7" value="&lt;div&gt;&lt;br&gt;&lt;/div&gt;&lt;div&gt;PLAINTEXT&lt;/div&gt;&lt;div&gt;JSON&lt;/div&gt;" style="text;strokeColor=none;fillColor=none;align=left;verticalAlign=top;spacingLeft=4;spacingRight=4;overflow=hidden;rotatable=0;points=[[0,0.5],[1,0.5]];portConstraint=eastwest;whiteSpace=wrap;html=1;" parent="du4Ww-NUh8m7LlfueqSG-6" vertex="1">
          <mxGeometry y="40" width="160" height="74" as="geometry" />
        </mxCell>
        <mxCell id="du4Ww-NUh8m7LlfueqSG-15" value="&amp;lt;&amp;lt;interface&amp;gt;&amp;gt;&lt;div&gt;IExportManager&lt;/div&gt;" style="swimlane;fontStyle=1;align=center;verticalAlign=top;childLayout=stackLayout;horizontal=1;startSize=40;horizontalStack=0;resizeParent=1;resizeParentMax=0;resizeLast=0;collapsible=1;marginBottom=0;whiteSpace=wrap;html=1;direction=east;" parent="1" vertex="1">
          <mxGeometry x="600" y="90" width="160" height="70" as="geometry" />
        </mxCell>
        <mxCell id="du4Ww-NUh8m7LlfueqSG-16" value="+export(order : Order)" style="text;strokeColor=none;fillColor=none;align=left;verticalAlign=top;spacingLeft=4;spacingRight=4;overflow=hidden;rotatable=0;points=[[0,0.5],[1,0.5]];portConstraint=eastwest;whiteSpace=wrap;html=1;" parent="du4Ww-NUh8m7LlfueqSG-15" vertex="1">
          <mxGeometry y="40" width="160" height="30" as="geometry" />
        </mxCell>
        <mxCell id="du4Ww-NUh8m7LlfueqSG-17" value="ExportText" style="swimlane;fontStyle=1;align=center;verticalAlign=top;childLayout=stackLayout;horizontal=1;startSize=26;horizontalStack=0;resizeParent=1;resizeParentMax=0;resizeLast=0;collapsible=1;marginBottom=0;whiteSpace=wrap;html=1;" parent="1" vertex="1">
          <mxGeometry x="440" y="-40" width="160" height="52" as="geometry" />
        </mxCell>
        <mxCell id="du4Ww-NUh8m7LlfueqSG-20" value="+ export(order : Order)" style="text;strokeColor=none;fillColor=none;align=left;verticalAlign=top;spacingLeft=4;spacingRight=4;overflow=hidden;rotatable=0;points=[[0,0.5],[1,0.5]];portConstraint=eastwest;whiteSpace=wrap;html=1;" parent="du4Ww-NUh8m7LlfueqSG-17" vertex="1">
          <mxGeometry y="26" width="160" height="26" as="geometry" />
        </mxCell>
        <mxCell id="du4Ww-NUh8m7LlfueqSG-23" value="ExportText" style="swimlane;fontStyle=1;align=center;verticalAlign=top;childLayout=stackLayout;horizontal=1;startSize=26;horizontalStack=0;resizeParent=1;resizeParentMax=0;resizeLast=0;collapsible=1;marginBottom=0;whiteSpace=wrap;html=1;" parent="1" vertex="1">
          <mxGeometry x="740" y="-40" width="160" height="52" as="geometry" />
        </mxCell>
        <mxCell id="du4Ww-NUh8m7LlfueqSG-24" value="+ export(order : Order)" style="text;strokeColor=none;fillColor=none;align=left;verticalAlign=top;spacingLeft=4;spacingRight=4;overflow=hidden;rotatable=0;points=[[0,0.5],[1,0.5]];portConstraint=eastwest;whiteSpace=wrap;html=1;" parent="du4Ww-NUh8m7LlfueqSG-23" vertex="1">
          <mxGeometry y="26" width="160" height="26" as="geometry" />
        </mxCell>
        <mxCell id="du4Ww-NUh8m7LlfueqSG-25" value="MovieTicket" style="swimlane;fontStyle=1;align=center;verticalAlign=top;childLayout=stackLayout;horizontal=1;startSize=26;horizontalStack=0;resizeParent=1;resizeParentMax=0;resizeLast=0;collapsible=1;marginBottom=0;whiteSpace=wrap;html=1;" parent="1" vertex="1">
          <mxGeometry x="1300" y="317" width="320" height="190" as="geometry" />
        </mxCell>
        <mxCell id="du4Ww-NUh8m7LlfueqSG-26" value="- rowNr : int&lt;div&gt;- seatNr : int&lt;br&gt;&lt;div&gt;- isPremium: boolean&lt;/div&gt;&lt;/div&gt;" style="text;strokeColor=none;fillColor=none;align=left;verticalAlign=top;spacingLeft=4;spacingRight=4;overflow=hidden;rotatable=0;points=[[0,0.5],[1,0.5]];portConstraint=eastwest;whiteSpace=wrap;html=1;" parent="du4Ww-NUh8m7LlfueqSG-25" vertex="1">
          <mxGeometry y="26" width="320" height="54" as="geometry" />
        </mxCell>
        <mxCell id="du4Ww-NUh8m7LlfueqSG-27" value="" style="line;strokeWidth=1;fillColor=none;align=left;verticalAlign=middle;spacingTop=-1;spacingLeft=3;spacingRight=3;rotatable=0;labelPosition=right;points=[];portConstraint=eastwest;strokeColor=inherit;" parent="du4Ww-NUh8m7LlfueqSG-25" vertex="1">
          <mxGeometry y="80" width="320" height="8" as="geometry" />
        </mxCell>
        <mxCell id="du4Ww-NUh8m7LlfueqSG-28" value="+MovieTicket(movieScreening: MovieScreening, isPremiumReservation: boolean, seatRow: int, seatNr: int)&lt;div&gt;+isPremiumTicket(): boolean&lt;/div&gt;&lt;div&gt;+getPrice(): double&lt;/div&gt;&lt;div&gt;+toString(): String&lt;/div&gt;&lt;div&gt;+toJson(): String&lt;/div&gt;" style="text;strokeColor=none;fillColor=none;align=left;verticalAlign=top;spacingLeft=4;spacingRight=4;overflow=hidden;rotatable=0;points=[[0,0.5],[1,0.5]];portConstraint=eastwest;whiteSpace=wrap;html=1;" parent="du4Ww-NUh8m7LlfueqSG-25" vertex="1">
          <mxGeometry y="88" width="320" height="102" as="geometry" />
        </mxCell>
        <mxCell id="du4Ww-NUh8m7LlfueqSG-61" style="edgeStyle=orthogonalEdgeStyle;rounded=0;orthogonalLoop=1;jettySize=auto;html=1;endArrow=none;startFill=0;startArrow=open;exitX=0.481;exitY=0.004;exitDx=0;exitDy=0;exitPerimeter=0;" parent="1" source="du4Ww-NUh8m7LlfueqSG-43" edge="1">
          <mxGeometry relative="1" as="geometry">
            <mxPoint x="1020.6153846153843" y="459" as="targetPoint" />
            <mxPoint x="1030" y="510" as="sourcePoint" />
          </mxGeometry>
        </mxCell>
        <mxCell id="du4Ww-NUh8m7LlfueqSG-29" value="MovieScreening" style="swimlane;fontStyle=1;align=center;verticalAlign=top;childLayout=stackLayout;horizontal=1;startSize=26;horizontalStack=0;resizeParent=1;resizeParentMax=0;resizeLast=0;collapsible=1;marginBottom=0;whiteSpace=wrap;html=1;" parent="1" vertex="1">
          <mxGeometry x="1310" y="550" width="320" height="190" as="geometry" />
        </mxCell>
        <mxCell id="du4Ww-NUh8m7LlfueqSG-30" value="-dateAndTime: LocalDateTime&lt;div&gt;-pricePerSeat: double&lt;/div&gt;" style="text;strokeColor=none;fillColor=none;align=left;verticalAlign=top;spacingLeft=4;spacingRight=4;overflow=hidden;rotatable=0;points=[[0,0.5],[1,0.5]];portConstraint=eastwest;whiteSpace=wrap;html=1;" parent="du4Ww-NUh8m7LlfueqSG-29" vertex="1">
          <mxGeometry y="26" width="320" height="54" as="geometry" />
        </mxCell>
        <mxCell id="du4Ww-NUh8m7LlfueqSG-31" value="" style="line;strokeWidth=1;fillColor=none;align=left;verticalAlign=middle;spacingTop=-1;spacingLeft=3;spacingRight=3;rotatable=0;labelPosition=right;points=[];portConstraint=eastwest;strokeColor=inherit;" parent="du4Ww-NUh8m7LlfueqSG-29" vertex="1">
          <mxGeometry y="80" width="320" height="8" as="geometry" />
        </mxCell>
        <mxCell id="du4Ww-NUh8m7LlfueqSG-32" value="+MovieScreening(movie: Movie, dateAndTime: LocalDateTime, pricePerSeat: double)&lt;div&gt;+getPricePerSeat() : double&lt;/div&gt;&lt;div&gt;+toString(String)&lt;/div&gt;" style="text;strokeColor=none;fillColor=none;align=left;verticalAlign=top;spacingLeft=4;spacingRight=4;overflow=hidden;rotatable=0;points=[[0,0.5],[1,0.5]];portConstraint=eastwest;whiteSpace=wrap;html=1;" parent="du4Ww-NUh8m7LlfueqSG-29" vertex="1">
          <mxGeometry y="88" width="320" height="102" as="geometry" />
        </mxCell>
        <mxCell id="du4Ww-NUh8m7LlfueqSG-62" value="" style="edgeStyle=orthogonalEdgeStyle;rounded=0;orthogonalLoop=1;jettySize=auto;html=1;endArrow=none;startFill=0;entryX=0.479;entryY=1.001;entryDx=0;entryDy=0;entryPerimeter=0;" parent="1" target="du4Ww-NUh8m7LlfueqSG-44" edge="1">
          <mxGeometry relative="1" as="geometry">
            <Array as="points">
              <mxPoint x="1020" y="683" />
              <mxPoint x="1021" y="683" />
            </Array>
            <mxPoint x="1020" y="800" as="sourcePoint" />
            <mxPoint x="1010" y="730" as="targetPoint" />
          </mxGeometry>
        </mxCell>
        <mxCell id="du4Ww-NUh8m7LlfueqSG-33" value="Movie" style="swimlane;fontStyle=1;align=center;verticalAlign=top;childLayout=stackLayout;horizontal=1;startSize=26;horizontalStack=0;resizeParent=1;resizeParentMax=0;resizeLast=0;collapsible=1;marginBottom=0;whiteSpace=wrap;html=1;" parent="1" vertex="1">
          <mxGeometry x="1310" y="800" width="320" height="190" as="geometry" />
        </mxCell>
        <mxCell id="du4Ww-NUh8m7LlfueqSG-34" value="-title : String" style="text;strokeColor=none;fillColor=none;align=left;verticalAlign=top;spacingLeft=4;spacingRight=4;overflow=hidden;rotatable=0;points=[[0,0.5],[1,0.5]];portConstraint=eastwest;whiteSpace=wrap;html=1;" parent="du4Ww-NUh8m7LlfueqSG-33" vertex="1">
          <mxGeometry y="26" width="320" height="54" as="geometry" />
        </mxCell>
        <mxCell id="du4Ww-NUh8m7LlfueqSG-35" value="" style="line;strokeWidth=1;fillColor=none;align=left;verticalAlign=middle;spacingTop=-1;spacingLeft=3;spacingRight=3;rotatable=0;labelPosition=right;points=[];portConstraint=eastwest;strokeColor=inherit;" parent="du4Ww-NUh8m7LlfueqSG-33" vertex="1">
          <mxGeometry y="80" width="320" height="8" as="geometry" />
        </mxCell>
        <mxCell id="du4Ww-NUh8m7LlfueqSG-36" value="+Movie(title : String)&lt;div&gt;+addScreening(screening: MovieScreening) : void&lt;/div&gt;&lt;div&gt;+toString(): String&lt;/div&gt;" style="text;strokeColor=none;fillColor=none;align=left;verticalAlign=top;spacingLeft=4;spacingRight=4;overflow=hidden;rotatable=0;points=[[0,0.5],[1,0.5]];portConstraint=eastwest;whiteSpace=wrap;html=1;" parent="du4Ww-NUh8m7LlfueqSG-33" vertex="1">
          <mxGeometry y="88" width="320" height="102" as="geometry" />
        </mxCell>
        <mxCell id="du4Ww-NUh8m7LlfueqSG-37" value="PriceCalculator" style="swimlane;fontStyle=1;align=center;verticalAlign=top;childLayout=stackLayout;horizontal=1;startSize=40;horizontalStack=0;resizeParent=1;resizeParentMax=0;resizeLast=0;collapsible=1;marginBottom=0;whiteSpace=wrap;html=1;direction=east;" parent="1" vertex="1">
          <mxGeometry x="-425" y="317" width="230" height="100" as="geometry" />
        </mxCell>
        <mxCell id="du4Ww-NUh8m7LlfueqSG-38" value="-calculatePrice(ticket: ArrayList&amp;lt;MovieTickets&amp;gt;, isStudentOrder : boolean ) : double" style="text;strokeColor=none;fillColor=none;align=left;verticalAlign=top;spacingLeft=4;spacingRight=4;overflow=hidden;rotatable=0;points=[[0,0.5],[1,0.5]];portConstraint=eastwest;whiteSpace=wrap;html=1;" parent="du4Ww-NUh8m7LlfueqSG-37" vertex="1">
          <mxGeometry y="40" width="230" height="60" as="geometry" />
        </mxCell>
        <mxCell id="du4Ww-NUh8m7LlfueqSG-39" value="&amp;lt;&amp;lt;interface&amp;gt;&amp;gt;&lt;div&gt;IPriceCalculator&lt;/div&gt;" style="swimlane;fontStyle=1;align=center;verticalAlign=top;childLayout=stackLayout;horizontal=1;startSize=40;horizontalStack=0;resizeParent=1;resizeParentMax=0;resizeLast=0;collapsible=1;marginBottom=0;whiteSpace=wrap;html=1;direction=east;" parent="1" vertex="1">
          <mxGeometry x="-60" y="318" width="260" height="100" as="geometry" />
        </mxCell>
        <mxCell id="du4Ww-NUh8m7LlfueqSG-40" value="-calculatePrice(ticket: ArrayList&amp;lt;MovieTickets&amp;gt;, isStudentOrder : boolean ) : double" style="text;strokeColor=none;fillColor=none;align=left;verticalAlign=top;spacingLeft=4;spacingRight=4;overflow=hidden;rotatable=0;points=[[0,0.5],[1,0.5]];portConstraint=eastwest;whiteSpace=wrap;html=1;" parent="du4Ww-NUh8m7LlfueqSG-39" vertex="1">
          <mxGeometry y="40" width="260" height="60" as="geometry" />
        </mxCell>
        <mxCell id="du4Ww-NUh8m7LlfueqSG-41" value="&amp;lt;&amp;lt;interface&amp;gt;&amp;gt;&lt;div&gt;IMovieTicket&lt;/div&gt;" style="swimlane;fontStyle=1;align=center;verticalAlign=top;childLayout=stackLayout;horizontal=1;startSize=40;horizontalStack=0;resizeParent=1;resizeParentMax=0;resizeLast=0;collapsible=1;marginBottom=0;whiteSpace=wrap;html=1;direction=east;" parent="1" vertex="1">
          <mxGeometry x="910" y="330" width="210" height="130" as="geometry" />
        </mxCell>
        <mxCell id="du4Ww-NUh8m7LlfueqSG-42" value="+isPremiumTicket() : boolean&lt;div&gt;+getPrice() : double&lt;/div&gt;&lt;div&gt;+ toString() : String&lt;/div&gt;&lt;div&gt;+ toJson() : String&lt;/div&gt;" style="text;strokeColor=none;fillColor=none;align=left;verticalAlign=top;spacingLeft=4;spacingRight=4;overflow=hidden;rotatable=0;points=[[0,0.5],[1,0.5]];portConstraint=eastwest;whiteSpace=wrap;html=1;" parent="du4Ww-NUh8m7LlfueqSG-41" vertex="1">
          <mxGeometry y="40" width="210" height="90" as="geometry" />
        </mxCell>
        <mxCell id="du4Ww-NUh8m7LlfueqSG-43" value="&amp;lt;&amp;lt;interface&amp;gt;&amp;gt;&lt;div&gt;IMovieScreening&lt;/div&gt;" style="swimlane;fontStyle=1;align=center;verticalAlign=top;childLayout=stackLayout;horizontal=1;startSize=40;horizontalStack=0;resizeParent=1;resizeParentMax=0;resizeLast=0;collapsible=1;marginBottom=0;whiteSpace=wrap;html=1;direction=east;" parent="1" vertex="1">
          <mxGeometry x="920" y="550" width="210" height="130" as="geometry" />
        </mxCell>
        <mxCell id="du4Ww-NUh8m7LlfueqSG-44" value="+getPricePerSeat() : double&lt;div&gt;+toString() :&amp;nbsp; String&lt;/div&gt;" style="text;strokeColor=none;fillColor=none;align=left;verticalAlign=top;spacingLeft=4;spacingRight=4;overflow=hidden;rotatable=0;points=[[0,0.5],[1,0.5]];portConstraint=eastwest;whiteSpace=wrap;html=1;" parent="du4Ww-NUh8m7LlfueqSG-43" vertex="1">
          <mxGeometry y="40" width="210" height="90" as="geometry" />
        </mxCell>
        <mxCell id="du4Ww-NUh8m7LlfueqSG-45" value="&amp;lt;&amp;lt;interface&amp;gt;&amp;gt;&lt;div&gt;IMovie&lt;/div&gt;" style="swimlane;fontStyle=1;align=center;verticalAlign=top;childLayout=stackLayout;horizontal=1;startSize=40;horizontalStack=0;resizeParent=1;resizeParentMax=0;resizeLast=0;collapsible=1;marginBottom=0;whiteSpace=wrap;html=1;direction=east;" parent="1" vertex="1">
          <mxGeometry x="890" y="800" width="290" height="130" as="geometry" />
        </mxCell>
        <mxCell id="du4Ww-NUh8m7LlfueqSG-46" value="+addScreening(movie : IMovieScreening) : void&lt;div&gt;+toString() :&amp;nbsp; String&lt;/div&gt;" style="text;strokeColor=none;fillColor=none;align=left;verticalAlign=top;spacingLeft=4;spacingRight=4;overflow=hidden;rotatable=0;points=[[0,0.5],[1,0.5]];portConstraint=eastwest;whiteSpace=wrap;html=1;" parent="du4Ww-NUh8m7LlfueqSG-45" vertex="1">
          <mxGeometry y="40" width="290" height="90" as="geometry" />
        </mxCell>
        <mxCell id="du4Ww-NUh8m7LlfueqSG-47" value="&amp;lt;&amp;lt;interface&amp;gt;&amp;gt;&lt;div&gt;IOrder&lt;/div&gt;" style="swimlane;fontStyle=1;align=center;verticalAlign=top;childLayout=stackLayout;horizontal=1;startSize=40;horizontalStack=0;resizeParent=1;resizeParentMax=0;resizeLast=0;collapsible=1;marginBottom=0;whiteSpace=wrap;html=1;direction=east;" parent="1" vertex="1">
          <mxGeometry x="340" y="270" width="280" height="170" as="geometry" />
        </mxCell>
        <mxCell id="du4Ww-NUh8m7LlfueqSG-48" value="+getOrderNr(): int&lt;div&gt;+isStudentOrder(): boolean&lt;/div&gt;&lt;div&gt;+getTickets(): ArrayList&amp;lt;MovieTickets&amp;gt; : void&lt;/div&gt;&lt;div&gt;+addReservation(movieTicket: MovieTicket) : void&lt;/div&gt;&lt;div&gt;+calculatePrice(): double&lt;/div&gt;&lt;div&gt;+export(exportManager : IExportManager, exportFormat: TicketExportFormat) : void&lt;/div&gt;" style="text;strokeColor=none;fillColor=none;align=left;verticalAlign=top;spacingLeft=4;spacingRight=4;overflow=hidden;rotatable=0;points=[[0,0.5],[1,0.5]];portConstraint=eastwest;whiteSpace=wrap;html=1;" parent="du4Ww-NUh8m7LlfueqSG-47" vertex="1">
          <mxGeometry y="40" width="280" height="130" as="geometry" />
        </mxCell>
        <mxCell id="du4Ww-NUh8m7LlfueqSG-53" style="edgeStyle=orthogonalEdgeStyle;rounded=0;orthogonalLoop=1;jettySize=auto;html=1;exitX=1;exitY=0.5;exitDx=0;exitDy=0;entryX=0;entryY=0.5;entryDx=0;entryDy=0;dashed=1;endArrow=block;endFill=0;" parent="1" edge="1">
          <mxGeometry relative="1" as="geometry">
            <mxPoint x="-195" y="372" as="sourcePoint" />
            <mxPoint x="-60" y="373" as="targetPoint" />
          </mxGeometry>
        </mxCell>
        <mxCell id="du4Ww-NUh8m7LlfueqSG-54" style="edgeStyle=orthogonalEdgeStyle;rounded=0;orthogonalLoop=1;jettySize=auto;html=1;exitX=0;exitY=0.5;exitDx=0;exitDy=0;entryX=1;entryY=0.5;entryDx=0;entryDy=0;" parent="1" edge="1">
          <mxGeometry relative="1" as="geometry">
            <mxPoint x="340" y="373" as="sourcePoint" />
            <mxPoint x="200" y="372" as="targetPoint" />
          </mxGeometry>
        </mxCell>
        <mxCell id="du4Ww-NUh8m7LlfueqSG-57" style="edgeStyle=orthogonalEdgeStyle;rounded=0;orthogonalLoop=1;jettySize=auto;html=1;exitX=1;exitY=0.5;exitDx=0;exitDy=0;dashed=1;endArrow=block;endFill=0;entryX=0.25;entryY=0;entryDx=0;entryDy=0;" parent="1" source="du4Ww-NUh8m7LlfueqSG-20" target="du4Ww-NUh8m7LlfueqSG-15" edge="1">
          <mxGeometry relative="1" as="geometry">
            <mxPoint x="-185" y="382" as="sourcePoint" />
            <mxPoint x="540" y="70" as="targetPoint" />
          </mxGeometry>
        </mxCell>
        <mxCell id="du4Ww-NUh8m7LlfueqSG-58" style="edgeStyle=orthogonalEdgeStyle;rounded=0;orthogonalLoop=1;jettySize=auto;html=1;exitX=0;exitY=0.5;exitDx=0;exitDy=0;dashed=1;endArrow=block;endFill=0;entryX=0.75;entryY=0;entryDx=0;entryDy=0;" parent="1" source="du4Ww-NUh8m7LlfueqSG-24" target="du4Ww-NUh8m7LlfueqSG-15" edge="1">
          <mxGeometry relative="1" as="geometry">
            <mxPoint x="610" y="9" as="sourcePoint" />
            <mxPoint x="650" y="100" as="targetPoint" />
          </mxGeometry>
        </mxCell>
        <mxCell id="du4Ww-NUh8m7LlfueqSG-60" style="edgeStyle=orthogonalEdgeStyle;rounded=0;orthogonalLoop=1;jettySize=auto;html=1;exitX=1.012;exitY=0.411;exitDx=0;exitDy=0;entryX=0;entryY=0.25;entryDx=0;entryDy=0;endArrow=open;endFill=0;startArrow=diamondThin;startFill=0;exitPerimeter=0;" parent="1" edge="1" target="du4Ww-NUh8m7LlfueqSG-41" source="du4Ww-NUh8m7LlfueqSG-48">
          <mxGeometry relative="1" as="geometry">
            <mxPoint x="660" y="363" as="sourcePoint" />
            <mxPoint x="858.7199999999998" y="363.212" as="targetPoint" />
          </mxGeometry>
        </mxCell>
        <mxCell id="du4Ww-NUh8m7LlfueqSG-65" style="edgeStyle=orthogonalEdgeStyle;rounded=0;orthogonalLoop=1;jettySize=auto;html=1;exitX=0.002;exitY=0.815;exitDx=0;exitDy=0;endArrow=block;endFill=0;dashed=1;entryX=1.012;entryY=0.339;entryDx=0;entryDy=0;entryPerimeter=0;exitPerimeter=0;" parent="1" edge="1" target="du4Ww-NUh8m7LlfueqSG-44" source="du4Ww-NUh8m7LlfueqSG-30">
          <mxGeometry relative="1" as="geometry">
            <mxPoint x="1312" y="619.5555555555557" as="targetPoint" />
            <mxPoint x="1181" y="620" as="sourcePoint" />
          </mxGeometry>
        </mxCell>
        <mxCell id="WYuy0TzVJ_P1Q-VYB8rp-1" style="edgeStyle=orthogonalEdgeStyle;rounded=0;orthogonalLoop=1;jettySize=auto;html=1;endArrow=block;endFill=0;dashed=1;entryX=1.012;entryY=0.339;entryDx=0;entryDy=0;entryPerimeter=0;" edge="1" parent="1">
          <mxGeometry relative="1" as="geometry">
            <mxPoint x="1180" y="881" as="targetPoint" />
            <mxPoint x="1310" y="881" as="sourcePoint" />
          </mxGeometry>
        </mxCell>
        <mxCell id="WYuy0TzVJ_P1Q-VYB8rp-2" style="edgeStyle=orthogonalEdgeStyle;rounded=0;orthogonalLoop=1;jettySize=auto;html=1;exitX=0.002;exitY=0.815;exitDx=0;exitDy=0;endArrow=block;endFill=0;dashed=1;entryX=1.012;entryY=0.339;entryDx=0;entryDy=0;entryPerimeter=0;exitPerimeter=0;" edge="1" parent="1">
          <mxGeometry relative="1" as="geometry">
            <mxPoint x="1120" y="395.25" as="targetPoint" />
            <mxPoint x="1298" y="394.25" as="sourcePoint" />
          </mxGeometry>
        </mxCell>
        <mxCell id="WYuy0TzVJ_P1Q-VYB8rp-3" style="edgeStyle=orthogonalEdgeStyle;rounded=0;orthogonalLoop=1;jettySize=auto;html=1;exitX=0.952;exitY=1.004;exitDx=0;exitDy=0;endArrow=block;endFill=0;dashed=1;entryX=0.25;entryY=0;entryDx=0;entryDy=0;exitPerimeter=0;" edge="1" parent="1" source="du4Ww-NUh8m7LlfueqSG-4" target="du4Ww-NUh8m7LlfueqSG-47">
          <mxGeometry relative="1" as="geometry">
            <mxPoint x="370" y="251" as="targetPoint" />
            <mxPoint x="548" y="250" as="sourcePoint" />
          </mxGeometry>
        </mxCell>
        <mxCell id="WYuy0TzVJ_P1Q-VYB8rp-5" style="edgeStyle=orthogonalEdgeStyle;rounded=0;orthogonalLoop=1;jettySize=auto;html=1;exitX=1.007;exitY=0.592;exitDx=0;exitDy=0;endArrow=none;endFill=0;startArrow=open;startFill=0;dashed=1;entryX=-0.003;entryY=0.351;entryDx=0;entryDy=0;entryPerimeter=0;exitPerimeter=0;" edge="1" parent="1" source="du4Ww-NUh8m7LlfueqSG-7" target="du4Ww-NUh8m7LlfueqSG-4">
          <mxGeometry relative="1" as="geometry">
            <mxPoint x="40.001111111110845" y="160" as="targetPoint" />
            <mxPoint x="40.889999999999986" y="250" as="sourcePoint" />
          </mxGeometry>
        </mxCell>
      </root>
    </mxGraphModel>
  </diagram>
</mxfile>
